<?xml version="1.0" standalone="no"?>
<svg xmlns="http://www.w3.org/2000/svg" viewBox="0 0 91.92 36" width="91.92" height="36"><g fill="#707cff" color="#707cff" transform="translate(0 3.9999999999999982) scale(0.2800001)"><svg width="100.0" height="100.0" x="0.0" y="0.0" viewBox="0 0 100 100"><path d="M40.987,25.852v5.295h-9.853V41h-5.298v-9.853h-9.85v-5.295h9.85V16h5.298v9.852H40.987z"></path><path d="M62.5,25.512h18v6.68h-18V25.512z"></path><path d="M24.497,72.167l-8.404-8.457l4.018-4.018l8.402,8.457l8.459-8.457l4.016,4.018l-8.509,8.457l8.509,8.457l-4.016,4.018  l-8.459-8.51l-8.508,8.51l-4.018-4.018L24.497,72.167z"></path><path d="M84,68.877v5.295H59v-5.295H84z M68.579,58.258c0.842-0.808,1.823-1.213,2.945-1.213c0.562,0,1.09,0.107,1.585,0.322  c0.495,0.216,0.933,0.512,1.311,0.891c0.379,0.381,0.685,0.826,0.917,1.337c0.23,0.512,0.347,1.063,0.347,1.658  c0,0.528-0.117,1.04-0.347,1.535c-0.231,0.496-0.53,0.94-0.892,1.335c-0.363,0.397-0.792,0.711-1.287,0.94  c-0.494,0.232-1.023,0.347-1.583,0.347c-0.594,0-1.148-0.107-1.658-0.32c-0.514-0.215-0.959-0.512-1.337-0.892  c-0.379-0.379-0.685-0.824-0.917-1.336c-0.23-0.511-0.347-1.047-0.347-1.609C67.315,60.064,67.736,59.067,68.579,58.258z   M67.662,80.164c0.231-0.496,0.538-0.933,0.917-1.311c0.378-0.379,0.824-0.677,1.337-0.893c0.51-0.213,1.047-0.32,1.607-0.32  c0.562,0,1.09,0.107,1.585,0.32c0.495,0.216,0.933,0.514,1.311,0.893c0.379,0.378,0.685,0.815,0.917,1.311  c0.23,0.496,0.347,1.04,0.347,1.634c0,0.496-0.117,0.991-0.347,1.484c-0.231,0.496-0.53,0.941-0.892,1.338  c-0.363,0.396-0.792,0.717-1.287,0.965c-0.494,0.248-1.023,0.371-1.583,0.371c-0.594,0-1.148-0.115-1.658-0.347  c-0.514-0.229-0.959-0.536-1.337-0.915c-0.379-0.38-0.685-0.826-0.917-1.337c-0.23-0.512-0.347-1.031-0.347-1.559  C67.315,81.203,67.432,80.659,67.662,80.164z"></path></svg></g><path fill="#ff3a61" fill-rule="nonzero" d="M3.34 0L3.34 17.09L0 17.09L0 0L3.34 0ZM20.21 8.47L20.21 8.47L20.23 10.32Q20.14 12.07 19.80 13.27Q19.46 14.47 18.48 15.46L18.48 15.46Q16.85 17.09 13.73 17.09L13.73 17.09Q10.06 17.09 8.69 16.12Q7.32 15.14 7.32 12.60L7.32 12.60L7.32 0L13.97 0Q16.85 0 18.48 1.63L18.48 1.63Q19.80 2.95 20.04 4.85L20.04 4.85Q20.21 6.19 20.21 8.47ZM16.15 13.06Q16.61 12.50 16.74 11.53Q16.87 10.56 16.87 8.50Q16.87 6.43 16.74 5.51Q16.61 4.58 16.15 4.03L16.15 4.03Q15.29 2.98 13.66 2.98L13.66 2.98L10.66 2.98L10.66 12.43Q10.66 13.39 11.30 13.75Q11.95 14.11 13.62 14.11Q15.29 14.11 16.15 13.06L16.15 13.06ZM35.76 17.09L35.76 6.89L32.69 13.37Q32.02 14.66 31.02 14.66Q30.02 14.66 29.35 13.30L29.35 13.30L26.23 6.89L26.23 17.09L22.90 17.09L22.90 0L26.18 0L31.01 9.86L35.81 0L39.10 0L39.10 17.09L35.76 17.09ZM52.58 0L55.92 0L55.92 15.36Q55.92 16.15 55.44 16.72Q54.96 17.28 54.31 17.28L54.31 17.28Q52.66 17.28 51.60 15.36L51.60 15.36L45.70 6.12L45.70 17.09L42.36 17.09L42.36 0L45.58 0L52.58 11.18L52.58 0Z" transform="translate(36, 9.456)"></path></svg>